<svg width="90" height="90" fill="none" xmlns="http://www.w3.org/2000/svg"><g clip-path="url(#clip0)" fill="#32302A"><path d="M20.634 45.12v.318a5.771 5.771 0 01-1.833 4.027 5.708 5.708 0 01-4.142 1.544 5.772 5.772 0 01-4.027-1.833c-2.18-2.338-2.05-6.004.289-8.168a5.737 5.737 0 013.94-1.545c.1 0 .202 0 .288.015V35.97a9.284 9.284 0 00-6.624 2.482c-3.738 3.478-3.94 9.367-.462 13.09a9.242 9.242 0 006.451 2.944h.333c2.352 0 4.575-.88 6.306-2.482a9.242 9.242 0 002.945-6.451v-.433h-3.464zm4.618-3.059c-3.593 0-6.263-2.8-6.263-6.35 0-3.521 2.626-6.393 6.35-6.393 2.266 0 3.637.793 4.82 1.92l-1.385 1.601c-.982-.91-2.035-1.53-3.45-1.53-2.352 0-4.07 1.934-4.07 4.359 0 2.424 1.703 4.402 4.07 4.402 1.516 0 2.483-.62 3.536-1.602l1.386 1.414c-1.27 1.328-2.685 2.18-4.994 2.18zM37 41.845v-1.14c-.635.75-1.602 1.342-3.016 1.342-1.761 0-3.305-1.01-3.305-2.872v-.029c0-2.006 1.602-2.988 3.767-2.988 1.125 0 1.847.16 2.569.39v-.23c0-1.285-.809-1.992-2.295-1.992-1.04 0-1.819.23-2.656.577l-.577-1.703c1.025-.462 2.02-.78 3.536-.78 2.742 0 4.084 1.444 4.084 3.926v5.499H37zm.043-3.94c-.548-.217-1.298-.376-2.136-.376-1.342 0-2.135.549-2.135 1.502v.028c0 .88.793 1.371 1.79 1.371 1.413 0 2.467-.793 2.467-1.948v-.577h.014zm14.375-5.542c2.02 0 3.262 1.284 3.262 3.55v5.932h-2.136v-5.282c0-1.473-.693-2.266-1.877-2.266-1.154 0-1.991.808-1.991 2.309v5.239H46.54v-5.297c0-1.443-.707-2.251-1.876-2.251-1.184 0-1.992.88-1.992 2.323v5.225h-2.136V32.55h2.136v1.415c.592-.823 1.414-1.602 2.829-1.602 1.342 0 2.266.65 2.77 1.63.751-.98 1.733-1.63 3.147-1.63zm10.016 9.684c-1.53 0-2.497-.78-3.146-1.631v1.443h-2.136V29h2.136v5.109c.693-.967 1.66-1.746 3.146-1.746 2.194 0 4.33 1.746 4.33 4.835 0 3.102-2.122 4.849-4.33 4.849zm-.49-7.837c-1.444 0-2.714 1.184-2.714 2.988 0 1.818 1.27 2.987 2.713 2.987 1.458 0 2.656-1.14 2.656-2.987 0-1.819-1.212-2.988-2.656-2.988zm7.98 7.635h-2.136V32.55h2.136v2.092c.578-1.385 1.66-2.338 3.291-2.266v2.252h-.13c-1.862 0-3.175 1.212-3.175 3.68v3.536h.014zm8.083-1.53c1.039 0 1.775-.39 2.51-1.111l1.256 1.11c-.88 1.054-2.092 1.747-3.795 1.747-2.7 0-4.777-1.948-4.777-4.835 0-2.67 1.876-4.863 4.546-4.863 2.958 0 4.46 2.323 4.46 5.022 0 .188-.015.375-.03.577h-6.826c.23 1.516 1.284 2.353 2.656 2.353zm2.078-3.767c-.144-1.371-.953-2.453-2.353-2.453-1.299 0-2.222 1.01-2.41 2.453h4.763z"/><path d="M89.996 41.845h-2.324l-2.28-3.248-2.28 3.248h-2.266l3.42-4.705-3.29-4.59h2.323l2.136 3.074 2.15-3.074h2.266l-3.29 4.532 3.435 4.763zM26.22 45.12v.506a11.3 11.3 0 01-3.609 7.923c-2.223 2.079-5.109 3.147-8.154 3.046a11.3 11.3 0 01-7.924-3.608 11.34 11.34 0 01-3.045-8.155 11.3 11.3 0 013.608-7.923 11.314 11.314 0 017.75-3.06h.304v-3.463a14.706 14.706 0 00-10.435 3.983A14.696 14.696 0 00.01 44.702a14.701 14.701 0 003.983 10.651 14.782 14.782 0 0010.348 4.72c.174 0 .361.014.534.014 3.767 0 7.346-1.4 10.117-3.983 2.901-2.699 4.575-6.38 4.72-10.348 0-.217.014-.419 0-.635h-3.493z"/></g><defs><clipPath id="clip0"><path fill="#fff" d="M0 0h90v90H0z"/></clipPath></defs></svg>