<svg width="90" height="90" fill="none" xmlns="http://www.w3.org/2000/svg"><path fill-rule="evenodd" clip-rule="evenodd" d="M84.01 55.45H10.7c-3.942-.153-7.833-2.2-9.625-5.99-1.74-3.43-1.382-8.395 1.178-11.364C4.76 35.126 8.19 34.102 11.98 34H90l-5.99 21.45zm5.222-20.938H12.441c-4.198.051-8.294 1.126-10.547 4.915-1.945 3.071-1.843 7.883.154 10.802 2.048 3.276 5.478 4.556 9.01 4.658H83.55l5.683-20.375z" fill="#31302A"/><path fill-rule="evenodd" clip-rule="evenodd" d="M18.686 41.73H6.502l1.331-4.914c2.97-1.075 6.195-.461 8.396 1.484 1.792 1.485 2.406 3.226 2.457 3.43zm12.953-3.43c.614 1.383 0 3.02-.359 4.3l-3.225.564c.154-1.229.87-2.406.614-3.738-.05-.153-.256-.307-.41-.358-.87-.102-1.484.82-1.842 1.434-1.075 2.303-1.946 4.863-2.304 7.474 0 .717-.256 1.74.563 2.048.41.051.717-.051.973-.307.717-.87 1.433-3.123 1.433-3.123 1.127-.154 2.202-.41 3.328-.615-.666 2.407-1.587 5.785-4.608 6.246-1.535.154-3.174.154-4.249-1.024-1.33-1.638-.819-4.198-.41-6.092.922-3.225 2.663-7.781 6.758-8.191 1.383-.102 2.97 0 3.738 1.382zm23.037-1.228l-.819 3.225h2.15l-.46 1.843h-2.202s-.87 2.918-1.229 4.351c-.307 1.075-.665 2.406-.665 3.226.512.511 1.33.204 1.996.255-.05.615-.307 1.23-.46 1.843-1.587-.153-3.738.615-4.659-1.023-.256-.512-.102-1.178 0-1.741.563-2.253 1.894-6.86 1.894-6.86h-1.075l.46-1.843h1.127c.307-.922.82-2.713.82-2.713l3.122-.563zm19.096 11.57c0 .358-.205.716.05 1.023.462.461 1.23.256 1.895.307 0 .052-.41 1.843-.41 1.843h-1.689c-1.229.052-2.457 0-2.97-1.28-.358-1.996.666-3.788 1.076-5.63.614-2.356 1.996-7.22 1.996-7.22l3.226-.614-3.174 11.57z" fill="#31302A"/><path fill-rule="evenodd" clip-rule="evenodd" d="M5.734 37.942c-.716 2.252-1.33 4.607-1.996 6.86-.103.614-.205 1.382.256 1.843.358.358.768.563 1.28.563h13.515c-.666 2.56-2.816 4.608-5.222 5.478-2.662.973-5.836.46-7.986-1.229-2.56-2.099-3.789-5.222-3.072-8.55.41-1.893 1.536-3.736 3.225-4.965zm43.106 2.355l-.512 1.792c-1.178-.103-2.867-.41-3.584.819-.46 1.843 2.202 2.508 2.509 4.146.358 1.434 0 2.97-1.178 3.891-1.689 1.485-4.505 1.178-6.552.666l.511-1.894c1.23.255 3.328.767 4.199-.615.614-1.638-1.485-2.303-2.253-3.532-.82-1.024-.614-2.611 0-3.686 1.536-2.1 4.505-2.355 6.86-1.587zm14.283-.103l-1.177 1.843c-.717-.05-1.485-.05-2.15.154l-2.663 9.625h-3.071l3.02-11.058c1.536-.717 3.277-1.024 5.17-.82l.871.256zm7.065 1.229c.921 1.894.154 4.096-.41 5.887-.665 1.792-1.945 3.891-3.942 4.505-1.382.359-3.122.461-4.3-.46-1.587-1.434-.973-4.045-.41-5.734.82-2.406 2.714-5.375 5.478-5.683 1.383-.05 2.816.154 3.584 1.485zm-3.379.563c-.307.051-.512.256-.768.512-1.33 2.1-2.252 4.966-2.355 7.014.052.307.205.512.512.512.461 0 .666-.205.973-.512 1.229-1.997 2.15-4.556 2.252-7.065.052-.41-.307-.512-.614-.46zm-26.723-1.024c.768.922.512 2.458.205 3.533l-1.946 6.962c-.819.358-1.792.41-2.713.563-1.792.205-3.84.103-4.812-1.587-.512-1.177-.308-2.713.46-3.737 1.536-1.843 3.789-2.15 5.939-2.508.153-.564.41-1.23.153-1.844-.665-.87-1.996-.46-2.918-.358-.512.103-.972.256-1.484.41l.46-1.946c1.946-.614 4.966-1.126 6.656.512zm-3.481 5.324c-.973.154-2.1.461-2.663 1.434-.307.614-.41 1.536.103 2.048.41.358 1.024.153 1.536.153l1.023-3.635z" fill="#31302A"/><path fill-rule="evenodd" clip-rule="evenodd" d="M9.011 44.086a.22.22 0 00.205-.205c0-.103-.051-.205-.205-.205h-.563a.22.22 0 00-.205.205c0 .102.051.205.205.205h.563zm-.358 1.228a.22.22 0 00.205-.205c0-.102-.052-.205-.205-.205h-.564a.22.22 0 00-.205.205c0 .103.052.205.205.205h.564zm-.768-.665c.051 0 .153-.052.153-.154 0-.102-.05-.154-.102-.154h-.359c-.05 0-.153.051-.153.154 0 .102.051.154.102.154h.359zm.358-1.178c.051 0 .154-.051.154-.154 0-.102-.051-.153-.103-.153h-.358c-.051 0-.154.051-.154.153 0 .103.051.154.103.154h.358zm-.717 2.406c.052 0 .154-.051.154-.153 0-.103-.051-.154-.102-.154h-.41c-.051 0-.154.051-.154.154 0 .102.051.153.103.153h.41zm-.306-1.843c.05 0 .153-.05.153-.153s-.051-.154-.103-.154h-.358c-.051 0-.154.051-.154.154 0 .102.051.153.103.153h.358zm-.36 1.229c.052 0 .155-.051.155-.154 0-.102-.052-.153-.103-.153h-.358c-.052 0-.154.05-.154.153s.051.154.102.154h.359zm-.665-.614c.052 0 .154-.052.154-.154 0-.102-.051-.154-.102-.154h-.359c-.051 0-.154.051-.154.154 0 .102.052.154.103.154h.358zm.359-1.178c.05 0 .153-.051.153-.154 0-.102-.05-.153-.102-.153h-.359c-.05 0-.153.051-.153.153 0 .103.05.154.102.154h.359zm-.717 2.406c.051 0 .154-.051.154-.153 0-.103-.052-.154-.103-.154H5.53c-.052 0-.154.051-.154.154 0 .102.051.153.102.153h.359zm4.147-1.689h-.512c-.205 0-.359.153-.359.307v.051c0 .154.103.308.308.308h.358l.205-.666zm-.41 1.177h-.46c-.206 0-.36.154-.36.307v.052c0 .153.103.307.308.307h.359l.153-.666zm.819-2.405h-.512c-.205 0-.358.153-.358.306v.052c0 .153.102.307.307.307h.359l.204-.666z" fill="#31302A"/><path fill-rule="evenodd" clip-rule="evenodd" d="M9.779 44.802h.563c.205 0 .358-.154.358-.307v-.051c0-.154-.102-.308-.307-.308h-.41l.154-.511h.614c.205 0 .359-.154.359-.308v-.05c0-.154-.103-.308-.307-.308h8.293c.358 1.74.051 3.02.051 3.02H9.983c.205 0 .359-.153.359-.307v-.05c0-.154-.103-.308-.307-.308h-.461l.205-.512zm1.126.102c-.102 0-.205.052-.205.154 0 .102.051.154.154.154h.512c.102 0 .204-.052.204-.154 0-.102-.05-.154-.153-.154h-.512zm.358-1.177c-.102 0-.204.051-.204.154 0 .102.05.153.153.153h.512c.102 0 .205-.051.205-.153 0-.103-.051-.154-.154-.154h-.512zm.87.614c-.05 0-.153.051-.153.103a.11.11 0 00.102.102h.359c.051 0 .153-.051.153-.102a.11.11 0 00-.102-.103h-.358zm-.306 1.178c-.052 0-.154.051-.154.102a.11.11 0 00.102.103h.359c.05 0 .153-.052.153-.103a.11.11 0 00-.102-.102h-.359zm.665-2.304c-.051 0-.154.051-.154.102a.11.11 0 00.103.103h.358c.051 0 .154-.051.154-.103a.11.11 0 00-.103-.102h-.358zm.46 1.792c-.05 0-.153.051-.153.102a.11.11 0 00.103.103h.358c.051 0 .154-.052.154-.103a.11.11 0 00-.103-.102h-.358zm.308-1.229c-.051 0-.154.051-.154.103a.11.11 0 00.103.102h.358c.051 0 .154-.051.154-.102a.11.11 0 00-.103-.103h-.358zm.768.563c-.051 0-.154.051-.154.103a.11.11 0 00.103.102h.358c.051 0 .154-.051.154-.102a.11.11 0 00-.103-.103h-.358zm-.307 1.229c-.052 0-.154.051-.154.102a.11.11 0 00.102.103h.359c.051 0 .153-.051.153-.103a.11.11 0 00-.102-.102h-.358zm.665-2.355c-.051 0-.153.051-.153.102a.11.11 0 00.102.103h.358c.052 0 .154-.051.154-.103a.11.11 0 00-.102-.102h-.359z" fill="#31302A"/></svg>