<svg width="90" height="90" fill="none" xmlns="http://www.w3.org/2000/svg"><path d="M55.077 30.231H34.393a.438.438 0 01-.385-.648 12.137 12.137 0 0121.439 0 .437.437 0 01-.37.648z" fill="#31302A"/><path d="M41.06 5.675c-1.93 2.672-9.062 10.27-14.318 19.38a20.687 20.687 0 0014.017 30.66.438.438 0 01.36.429v9.195a.437.437 0 01-.492.435 30.648 30.648 0 01.02-60.769.426.426 0 01.412.67z" fill="#31302A"/><path d="M75.34 35.395a30.662 30.662 0 01-26.49 30.36.56.56 0 01-.622-.561v-8.972a.56.56 0 01.445-.527 20.583 20.583 0 0011.702-6.798.435.435 0 00-.03-.597l-5.549-5.307a.43.43 0 00-.639.042 12.117 12.117 0 01-21.25-4.96.56.56 0 01.54-.661H64.89a.445.445 0 00.434-.401c.048-.533.062-1.08.062-1.615a20.695 20.695 0 00-16.714-20.311.56.56 0 01-.446-.527V5.589a.56.56 0 01.622-.561A30.664 30.664 0 0175.34 35.395zM32.436 84.95h-2.523a.05.05 0 01-.05-.05V72.93a.052.052 0 01.014-.035.051.051 0 01.036-.015h2.523a.051.051 0 01.035.014.05.05 0 01.015.036v11.971a.05.05 0 01-.05.048zm8.326.036a6.007 6.007 0 01-2.383-.47 5.771 5.771 0 01-3.151-3.205 6.221 6.221 0 01-.451-2.366v-.042a6.168 6.168 0 01.45-2.358 6.066 6.066 0 011.251-1.929 5.794 5.794 0 011.918-1.31 6.204 6.204 0 012.467-.479c.5-.003 1 .042 1.491.135.42.08.831.205 1.226.37.358.15.7.337 1.017.56.258.186.502.388.732.606a.202.202 0 010 .28l-1.377 1.599a.202.202 0 01-.28.02 6.026 6.026 0 00-1.24-.842 3.528 3.528 0 00-1.592-.353 3.218 3.218 0 00-2.433 1.074 3.68 3.68 0 00-.7 1.166 3.985 3.985 0 00-.25 1.419v.033c-.004.487.081.97.25 1.427.156.43.39.829.692 1.175a3.198 3.198 0 002.441 1.09c.583.017 1.16-.11 1.683-.37a6.39 6.39 0 001.23-.877.202.202 0 01.28 0l1.36 1.382a.202.202 0 010 .28c-.25.26-.517.504-.799.73-.319.27-.668.503-1.04.695-.4.19-.823.332-1.259.42a7.545 7.545 0 01-1.533.14zm18.733-6.341v-.163a.144.144 0 000-.04 1.207 1.207 0 000-.122.503.503 0 000-.076c0-.048 0-.096-.017-.143-.017-.048 0-.084-.02-.124a1.61 1.61 0 00-.03-.199v-.02c0-.064-.026-.123-.04-.181a13.075 13.075 0 00-.056-.227v-.029a.02.02 0 000-.016c-.02-.08-.044-.16-.072-.239a5.546 5.546 0 00-.404-.964c-.04-.076-.079-.151-.124-.224-.044-.073-.084-.143-.131-.216l-.017-.028c-.045-.065-.084-.132-.132-.197-.048-.064-.1-.14-.151-.207a10.898 10.898 0 00-.88-.928 3.562 3.562 0 00-.2-.163c-.067-.05-.134-.106-.204-.154a5.675 5.675 0 00-.66-.409 5.189 5.189 0 00-.708-.328l-.23-.084a3.634 3.634 0 00-.264-.084 4.023 4.023 0 00-.535-.132 5.724 5.724 0 00-1.15-.112 5.909 5.909 0 00-1.197.095c-.526.1-1.036.27-1.517.508a3.905 3.905 0 00-.46.246l-.215.135a3.69 3.69 0 00-.216.148l-.205.155c-.07.053-.134.106-.199.162a5.272 5.272 0 00-.888.923l-.096.129a2.25 2.25 0 00-.112.16c-.036.055-.092.14-.135.21a1.11 1.11 0 00-.086.148c-.037.056-.065.112-.096.168a2.245 2.245 0 00-.12.239 1.883 1.883 0 00-.096.204v.028a4.784 4.784 0 00-.123.312c-.036.103-.067.187-.095.28-.028.092-.06.19-.084.28a4.09 4.09 0 00-.068.295c-.02.098-.03.176-.047.28v.028c0 .008 0 .073-.017.112-.017.04-.017.101-.02.152-.002.05 0 .039 0 .058 0 .02 0 .107-.017.163v.897c0 .056 0 .112.017.163.017.05 0 .039 0 .059 0 .02 0 .1.02.151.02.05 0 .076.017.112.017.037 0 .02 0 .028.017.093.028.18.047.28.02.102.045.2.068.295.022.095.05.19.084.28.033.09.059.19.095.28a5.653 5.653 0 00.353.799c.048.093.101.18.154.28.054.102.101.164.152.24.05.075.106.153.163.226l.05.073a1.548 1.548 0 00.146.18c.059.067.115.14.176.207.062.067.124.132.188.196.088.099.182.192.28.28.057.051.115.104.177.152.062.048.152.123.233.182a6.013 6.013 0 00.718.463l.028.017c.172.091.347.175.527.252.087.04.182.076.28.107.098.03.188.067.28.095l.28.084c.076.02.155.04.236.056h.11c.385.074.776.111 1.169.112.392 0 .784-.038 1.169-.115l.255-.056.218-.056.323-.1c.059-.02.115-.04.17-.065.057-.026.178-.065.259-.101.081-.037.235-.107.35-.163.115-.056.196-.104.28-.16a6.72 6.72 0 00.598-.395c.154-.12.308-.244.451-.37l.208-.205.204-.21.12-.14a.12.12 0 00-.025-.149l-1.645-1.57a.115.115 0 00-.171.017 3.56 3.56 0 01-6.25-1.452.163.163 0 01.16-.196h9.207a.163.163 0 00.16-.13v-.462c0-.112.05-.202.048-.288l-.003.01zm-3.084-1.211h-5.96a.157.157 0 01-.143-.23 3.563 3.563 0 016.249 0 .157.157 0 01-.143.213l-.003.017z" fill="#31302A"/></svg>