<svg width="90" height="90" fill="none" xmlns="http://www.w3.org/2000/svg"><g clip-path="url(#clip0)"><path d="M70.071 27v17.888l-.225.19-.226.19-.217.198-.208.199-.198.198-.199.208-.19.208-.19.207V27h-20.01v16.29h-1.652V27h-20v16.317h-1.653V27H5.102v18.592L0 62.451h4.488l2.257-7.468h.65l3.73 7.468h5.418l-3.612-7.468h8.19l-2.276 7.468h4.894l2.249-7.45h1.083v-.018h10.926l-2.167 7.45h4.949l2.103-7.45h2.222l.054 7.45h4.136l4.767-7.45h3.116l-1.617 7.45h4.867l1.59-7.45h2.808l-.018.425.009.433.018.416.036.415.027.199.027.198.036.199.037.199.045.198.045.19.054.19.054.19.063.189.064.18.072.18.072.172.081.181.082.172.099.162.1.172.108.162.117.154.117.162.127.145.126.153.127.145.144.144.145.136.18.153.18.154.19.144.199.136.199.135.198.127.208.099.217.117.207.09.217.09.217.082.226.081.225.073.226.063.226.063.226.054.46.1.47.072.46.063.46.054.443.036.434.018.424.018h.406l.551-.009.551-.009.56-.027.56-.027.56-.045.56-.045.56-.054.56-.064.568-.072.569-.081.569-.09.569-.09.568-.1.57-.117.568-.118.578-.135 1.689-6.755H90V27H70.071zM6.962 54.297l.027-.1.063.1h-.09zm17.419-10.032l-.29.948-2.663 8.768-.109.307h-8.75l-.677-1.436 9.427-9.544H15.26l-7.359 7.874 2.384-7.865h-4.47V27.704h18.566v16.561zm5.165 7.404l-.145.01-.135.008-.145.01h-.523l-.163.008h-.154l-1.192-.008.551-2.014.253-1.002.632-2.348h.406l.2-.01h1.109l.56.01.515.018.226.009.217.018.207.027.19.027.172.027.162.045.154.046.135.054.118.054.108.072.1.072.072.09.045.073.036.072.036.081.027.09.018.1.009.1v.243l-.009.136-.009.135-.027.154-.027.153-.081.316-.109.361-.108.298-.118.29-.126.27-.135.253-.064.117-.063.118-.072.117-.081.1-.082.099-.08.09-.1.09-.1.082-.108.072-.108.081-.118.063-.126.073-.127.063-.135.054-.135.054-.145.045-.153.054-.163.037-.172.036-.171.036-.19.027-.19.027-.198.018-.171.1zm13.517 2.628l1.95-6.88.073 6.88h-2.023zm2.97-11.016h-4.64l-3.197 11.007h-4.921l.226-.09.225-.09.217-.09.217-.1.207-.1.2-.126.198-.117.19-.127.189-.135.18-.136.172-.135.172-.154.162-.144.154-.163.153-.153.145-.172.144-.162.136-.18.126-.172.127-.19.117-.19.108-.19.109-.198.099-.208.1-.207.08-.208.073-.217.072-.225.054-.226.063-.226.046-.244.045-.235.063-.379.054-.36.036-.344.027-.316.01-.316-.01-.29-.009-.288-.036-.27-.036-.254-.063-.253-.063-.234-.1-.226-.108-.217-.117-.217-.136-.198-.153-.19-.127-.135-.126-.136-.136-.117-.144-.1-.154-.099-.153-.09-.163-.081-.162-.073-.172-.072-.171-.054-.181-.054-.18-.054-.19-.045-.19-.037-.19-.036-.198-.027-.407-.054-.406-.027-.415-.027-.425-.01h-5.38V27.705h18.565v15.577zm11.27 11.016h-2.79l4.226-6.6-1.436 6.6zm10.375-10.7l-.009 3.82-.234.334-.217.343-.217.343-.199.343-.19.343-.189.352-.162.343-.163.343-.153.334-.136.344-.135.334-.118.316-.108.316-.1.307-.08.298-.073.298-.045.199-.045.207-.045.199-.036.207-.037.2-.027.198-.027.199-.018.207h-2.727l2.33-10.98-7.856-.01-7.025 10.99h-.524v-26.62h18.574l-.009 15.893zm10.71 15.188l-.389.063-.397.054-.397.054-.388.046-.389.036-.388.027-.38.018h-.622l-.244-.01-.235-.017-.235-.027-.225-.036-.217-.037-.217-.045-.208-.054-.198-.063-.199-.063-.19-.082-.18-.08-.18-.1-.172-.1-.163-.117-.153-.117-.154-.136-.135-.144-.136-.145-.126-.162-.118-.163-.108-.18-.1-.18-.099-.19-.072-.2-.063-.216-.054-.217-.054-.225-.037-.235-.027-.244-.018-.253-.009-.262h8.65l-.974 3.802zm10.97-4.488h-4.677l.768-3.07h-9.373l-.767 3.07h-4.533v-.632l.054-.262.045-.262.054-.28.054-.28.081-.307.082-.307.1-.307.108-.298.117-.298.126-.298.136-.288.135-.29.154-.288.153-.271.163-.28.18-.262.18-.262.181-.253.2-.244.207-.234.217-.226.216-.208.235-.207.235-.2.244-.18.261-.171.262-.154.28-.144.29-.136.297-.117.307-.09.316-.073.325-.063.334-.045.344-.027.352-.01.28.01.28.018.28.036.261.054.136.036.126.036.127.037.117.054.117.045.118.063.108.063.108.064.1.08.1.082.08.081.082.1.072.09.063.117.054.127.055.126.045.136.036.144.027.145.027.162.009.163v.351l-.018.19h5.59l.08-.388.073-.442.036-.235.018-.253.018-.253v-.262l-.009-.27-.027-.28-.027-.136-.018-.144-.036-.145-.036-.144-.046-.154-.045-.144-.054-.145-.063-.144-.063-.145-.082-.144-.08-.145-.1-.144-.117-.154-.127-.144-.126-.145-.136-.135-.144-.136-.154-.126-.153-.117-.163-.118-.171-.117-.172-.09-.18-.09-.19-.091-.19-.081-.198-.081-.208-.073-.208-.072-.207-.063-.226-.054-.217-.055-.235-.054-.234-.045-.235-.045-.244-.036-.253-.027-.524-.054-.532-.046-.56-.018-.57-.009-.424.01-.442.008-.47.028-.487.036-.506.054-.514.063-.524.081-.533.118-.262.054-.28.063-.262.072-.28.072-.28.082-.28.09-.28.09-.261.1-.28.117-.28.127-.262.126-.28.135-.262.145-.262.153-.261.154-.262.172V27.704h18.592l-.045 26.593z" fill="#31302A"/></g><defs><clipPath id="clip0"><path fill="#fff" d="M0 0h90v90H0z"/></clipPath></defs></svg>