<svg width="90" height="90" fill="none" xmlns="http://www.w3.org/2000/svg"><g clip-path="url(#clip0)"><path d="M17.129 62.117C7.769 62.117.155 54.5.155 45.136s7.614-16.981 16.974-16.981 16.974 7.617 16.974 16.981-7.614 16.981-16.974 16.981z" fill="#F7EBD0"/><path d="M17.129 28.313c9.288 0 16.815 7.531 16.815 16.823 0 9.292-7.527 16.823-16.815 16.823S.313 54.428.313 45.136c0-9.292 7.528-16.823 16.816-16.823zm0-.313C7.682 28 0 35.686 0 45.136s7.682 17.136 17.129 17.136c9.446 0 17.129-7.686 17.129-17.136S26.575 28 17.128 28zm72.554 10.235c.187-.22.317-.472.317-.785a1.251 1.251 0 00-.317-.85 1.146 1.146 0 00-.82-.345c-.314 0-.566.126-.818.345-.22.22-.317.504-.317.85 0 .313.097.565.317.785.252.22.504.313.817.313.32.004.601-.09.821-.313zm.065 11.588v-10.17h-1.703l.032 10.17h1.67zm-3.935-9.666l-.284-.126c-.756-.443-1.67-.662-2.772-.662-1.196 0-2.175.284-2.898.85-.378.284-.63.565-.818.946a2.222 2.222 0 00-.284 1.102c0 .691.317 1.26.882 1.764.533.471 1.321.85 2.362 1.166.882.285 1.48.565 1.857.85.317.317.504.662.504 1.101 0 .472-.252.85-.695 1.167-.442.252-1.072.41-1.857.41-.85 0-1.7-.22-2.581-.63l-.22-.158-.724 1.32.252.127c.976.471 2.049.691 3.212.691 1.26 0 2.296-.252 3.117-.817.41-.252.691-.598.915-.943.22-.41.313-.85.313-1.293v-.032c0-.756-.313-1.418-.915-1.951-.504-.44-1.32-.817-2.394-1.134-.82-.285-1.418-.569-1.764-.789-.378-.284-.536-.597-.536-.943 0-.41.158-.723.504-1.008.378-.252.878-.41 1.54-.41.915 0 1.671.158 2.269.536l.22.159.795-1.293zm-10.264.756c-1.166-1.008-2.613-1.54-4.284-1.54-1.638 0-2.991.503-4.093 1.479-1.227 1.102-1.857 2.614-1.857 4.597v7.902h1.638V48.25a5.115 5.115 0 001.89 1.321c.756.346 1.573.504 2.455.504 1.67 0 3.085-.504 4.251-1.573 1.196-1.04 1.793-2.297 1.793-3.78 0-1.512-.597-2.772-1.793-3.809zm-4.284-.126c1.228 0 2.297.378 3.118 1.134.85.756 1.292 1.7 1.292 2.833 0 1.07-.378 1.952-1.134 2.708-.817.788-1.918 1.195-3.243 1.195s-2.394-.41-3.244-1.195c-.785-.785-1.163-1.667-1.163-2.708 0-1.04.378-1.95 1.163-2.707.817-.82 1.89-1.26 3.211-1.26zm-8.564.63c-1.102-1.386-2.675-2.048-4.784-2.048-1.574 0-2.93.439-4.093 1.386-1.26.975-1.89 2.3-1.89 3.935 0 .914.252 1.825.784 2.674.472.818 1.195 1.48 2.175 1.984.975.471 2.016.691 3.146.691 1.07 0 2.077-.22 3.056-.691.976-.504 1.7-1.166 2.171-1.984l.317-.536h-1.825c-.378.536-.915.976-1.606 1.321a4.881 4.881 0 01-2.174.504c-1.008 0-1.858-.252-2.614-.756a4.135 4.135 0 01-1.573-2.077 8.549 8.549 0 013.211-.63l1.7.187 2.645.252c.818 0 1.512-.126 2.142-.313.252-.094.41-.22.472-.378.094-.126.094-.346.032-.598-.19-1.13-.6-2.106-1.292-2.923zm-.44 2.581l.033.062-.914.126-1.984-.188-2.772-.22h-.471c-.882.066-1.7.22-2.488.505.126-1.167.691-2.077 1.638-2.74a4.801 4.801 0 012.614-.788c1.48 0 2.613.471 3.463 1.418.44.565.752 1.163.882 1.825zm-17.664-4.63c-1.606 0-2.992.505-4.093 1.48-1.228 1.102-1.826 2.614-1.826 4.598l-.032 7.901h1.7l-.033-5.1a5.27 5.27 0 001.857 1.32 6.077 6.077 0 002.488.505c1.67 0 3.085-.505 4.252-1.574 1.195-1.04 1.764-2.296 1.764-3.78 0-1.512-.566-2.772-1.732-3.808-1.199-1.005-2.614-1.541-4.345-1.541zm-3.212 2.68c.85-.818 1.89-1.26 3.212-1.26 1.26 0 2.3.377 3.146 1.133.85.756 1.26 1.7 1.26 2.833 0 1.07-.378 1.952-1.102 2.708-.817.788-1.89 1.195-3.272 1.195-1.292 0-2.394-.41-3.243-1.195-.757-.785-1.135-1.667-1.135-2.708 0-1.04.379-1.95 1.135-2.707z" fill="#31302A"/><path d="M26.744 32.388a3.83 3.83 0 01-.41-.356 15.934 15.934 0 00-9.205-2.912c-8.842 0-16.01 7.17-16.01 16.016a15.956 15.956 0 003.169 9.565c5.356-1.584 10.033-4.334 14.036-8.312 4-3.96 6.811-8.644 8.42-14z" fill="#31302A"/><path d="M17.129 61.152c8.841 0 16.009-7.17 16.009-16.016 0-3.132-.9-6.052-2.452-8.518a.97.97 0 01-.108-.133 11.5 11.5 0 01.49 3.316c0 1.818-.421 3.539-1.246 5.148a11.665 11.665 0 01-3.355 3.888c-1.12.824-2.462 1.526-4.043 2.099-1.26.46-2.894.936-4.92 1.396l-5.847 1.314a95.091 95.091 0 00-6.768 1.804 15.952 15.952 0 0012.24 5.702z" fill="#31302A"/></g><defs><clipPath id="clip0"><path fill="#fff" d="M0 0h90v90H0z"/></clipPath></defs></svg>