<svg width="90" height="90" fill="none" xmlns="http://www.w3.org/2000/svg"><g clip-path="url(#clip0)"><path d="M45.495 29a225.132 225.132 0 00-40.587 3.608s-2.879.452-2.879 3.13v18.311c0 2.534 2.88 3.023 2.88 3.023a211.067 211.067 0 0040.586 3.84 211.044 211.044 0 0040.588-3.84s2.879-.49 2.879-3.023v-18.36c0-2.677-2.88-3.129-2.88-3.129A225.09 225.09 0 0045.496 29" fill="#31302A"/><path d="M16.713 41.323h.048a4.367 4.367 0 014.06-2.227h.854v4.28a3.608 3.608 0 00-1.92-.412c-2.476 0-3.08 1.641-3.08 3.839v5H12.26V39.26h4.453v2.064zm19.885 4.962h-9.376a2.496 2.496 0 002.793 2.793 2.225 2.225 0 002.13-1.114h4.28c-.71 2.966-3.521 4.31-6.381 4.31-4.156 0-7.266-2.352-7.266-6.719 0-4.184 2.88-6.718 6.949-6.718 4.357 0 6.871 2.697 6.871 6.977v.47zm-4.136-2.572a2.668 2.668 0 00-5.163 0h5.163zm19.454 2.572h-9.377a2.495 2.495 0 002.793 2.793 2.226 2.226 0 002.121-1.114h4.29c-.71 2.966-3.522 4.31-6.382 4.31-4.156 0-7.265-2.352-7.265-6.719 0-4.184 2.879-6.718 6.948-6.718 4.357 0 6.872 2.697 6.872 6.977v.47zm-4.137-2.572a2.668 2.668 0 00-5.163 0h5.163zm31.249 2.572h-9.367a2.495 2.495 0 002.793 2.793 2.226 2.226 0 002.121-1.114h4.28c-.71 2.966-3.522 4.31-6.382 4.31-4.155 0-7.265-2.352-7.265-6.719 0-4.184 2.88-6.718 6.949-6.718 4.357 0 6.871 2.697 6.871 6.977v.47zm-4.155-2.572a2.668 2.668 0 00-5.164 0h5.164zm-11.565-.365a3.934 3.934 0 00-2.303-.883 3.012 3.012 0 00-3.062 3.061 2.985 2.985 0 003.138 3.081 3.417 3.417 0 002.227-.854l1.132 3.138a7.313 7.313 0 01-4.27 1.344 6.623 6.623 0 01-6.834-6.565 6.719 6.719 0 017.026-6.833 7.293 7.293 0 014.107 1.45l-1.161 3.06z" fill="#F7EBD0"/></g><defs><clipPath id="clip0"><path fill="#fff" transform="translate(2 29)" d="M0 0h87v31.93H0z"/></clipPath></defs></svg>