<svg width="90" height="90" fill="none" xmlns="http://www.w3.org/2000/svg"><path d="M26.765 40.116h9.646c.127-3.654-.935-6.926-3.357-9.221-2.21-2.04-5.142-2.975-8.33-2.89v10.072a2.04 2.04 0 002.04 2.04zm-2.04 11.899v6.714a27.651 27.651 0 005.1-4.207 28.765 28.765 0 003.484-4.547h-6.544a2.04 2.04 0 00-2.04 2.04zm-9.859-13.938v-6.842a27.235 27.235 0 00-5.227 4.292 26.707 26.707 0 00-3.484 4.59h6.629c1.147 0 2.082-.935 2.082-2.04zm-2.082 11.898H3.01c-.128 3.612.977 6.884 3.4 9.18 2.21 2.081 5.184 3.016 8.456 2.889V52.015c0-1.105-.935-2.04-2.082-2.04z" fill="#31302A"/><path d="M26.765 40.117a2.04 2.04 0 01-2.04-2.04V28.005c-3.187.085-6.63 1.19-9.859 3.23v6.842a2.04 2.04 0 01-2.04 2.04H6.155C4.2 43.389 3.137 46.788 3.01 49.975h9.774a2.04 2.04 0 012.04 2.04v10.029c3.187-.128 6.629-1.232 9.858-3.272v-6.757a2.04 2.04 0 012.04-2.04h6.502c1.955-3.23 3.017-6.671 3.145-9.858h-9.604z" fill="#F5E4BC"/><path d="M38.45 39.564l1.063-1.148c.595.553 1.19.85 1.827.85.383 0 .68-.17.68-.467 0-.255-.17-.383-1.02-.68-.934-.383-1.572-.807-1.572-1.7 0-1.232 1.063-2.082 2.55-2.082 1.062 0 1.87.34 2.465.935l-1.02 1.19c-.468-.425-.978-.68-1.573-.68-.382 0-.637.212-.637.425 0 .255.17.34 1.02.68.935.34 1.572.807 1.572 1.7 0 1.274-1.062 2.124-2.55 2.124-1.19 0-2.167-.425-2.804-1.147zm7.14-5.142h1.955c.977 0 1.614.212 2.04.637.297.34.467.765.467 1.275 0 1.53-1.19 2.465-2.975 2.465H46.1l-.468 1.785h-1.657l1.615-6.162zm1.487 3.06c.808 0 1.275-.383 1.275-.978a.546.546 0 00-.17-.425c-.17-.17-.382-.255-.722-.255h-.595l-.425 1.615h.637v.042zm3.017.467c0-1.87 1.488-3.612 3.57-3.612 1.7 0 2.847 1.19 2.847 2.762 0 1.87-1.487 3.612-3.57 3.612-1.7 0-2.847-1.19-2.847-2.762zm4.717-.722c0-.765-.467-1.36-1.317-1.36-1.062 0-1.742 1.062-1.742 1.955 0 .764.467 1.36 1.317 1.36 1.105 0 1.742-1.063 1.742-1.955zm3.06-2.805h2.252c1.02 0 1.658.212 2.04.637.298.34.468.765.468 1.275 0 1.02-.553 1.827-1.785 2.167l.935 2.083h-1.828l-.807-1.87h-.723l-.467 1.87h-1.657l1.572-6.162zm1.827 2.975c.723 0 1.233-.34 1.233-.85a.546.546 0 00-.17-.425c-.128-.128-.383-.213-.723-.213h-.892l-.383 1.488h.935zm4.887-1.488H62.8l.383-1.487h5.27l-.383 1.487h-1.827l-1.19 4.675h-1.658l1.19-4.675zm2.762 3.655l1.063-1.148c.595.553 1.19.85 1.827.85.383 0 .68-.17.68-.467 0-.255-.17-.383-1.02-.68-.935-.383-1.572-.807-1.572-1.7 0-1.232 1.062-2.082 2.55-2.082 1.062 0 1.87.34 2.464.935l-1.02 1.19c-.467-.425-.977-.68-1.572-.68-.382 0-.637.212-.637.425 0 .255.17.34 1.02.68.934.34 1.572.807 1.572 1.7 0 1.274-1.063 2.124-2.55 2.124-1.19 0-2.167-.425-2.805-1.147zM40.151 42.41h1.657l.807 2.38 2.04-2.38h1.827l-1.572 6.162h-1.657l.892-3.57-2.125 2.422h-.042l-.892-2.38-.893 3.528h-1.657l1.615-6.162zm7.309 0h4.802l-.383 1.445h-3.144l-.255.935h2.847l-.34 1.36H48.14l-.255.977h3.187l-.383 1.445h-4.844l1.615-6.162zm5.652 0h1.912c1.147 0 1.87.34 2.337.807.425.468.638 1.063.638 1.785 0 .935-.34 1.785-.978 2.422-.722.723-1.742 1.148-3.145 1.148h-2.422l1.658-6.162zm.977 4.632c.68 0 1.317-.212 1.7-.637.297-.34.51-.808.51-1.275a1.28 1.28 0 00-.298-.85c-.212-.255-.595-.383-1.19-.383h-.467l-.808 3.145h.553zM59.4 42.41h1.657l-1.615 6.162h-1.657L59.4 42.41zm1.402 3.57c0-1.828 1.445-3.698 3.74-3.698 1.232 0 2.082.595 2.422 1.573l-1.445.807c-.255-.51-.595-.807-1.19-.807-.977 0-1.785.977-1.785 2.04 0 .764.51 1.274 1.19 1.274.51 0 .893-.212 1.275-.637l1.105 1.02c-.595.68-1.36 1.147-2.507 1.147-1.615 0-2.805-1.062-2.805-2.72zm7.267-3.57h1.657l-1.615 6.162h-1.657l1.615-6.162zm2.635 0h1.53l1.572 3.4.892-3.4h1.657l-1.614 6.162h-1.445l-1.615-3.57-.935 3.57H69.09l1.614-6.162zm6.586 0h4.802l-.382 1.445h-3.145l-.255.935h2.847l-.34 1.36H77.97l-.255.977h3.187l-.382 1.445h-4.845l1.615-6.162zm-35.143 8.244h1.657l.935 6.204h-1.785l-.127-1.105h-2.295l-.722 1.105h-1.785l4.122-6.204zm.552 3.782l-.212-1.785-1.105 1.785H42.7zm2.38.383c0-.298.043-.638.128-.978l.807-3.145h1.657l-.85 3.273c-.042.212-.085.382-.085.595 0 .552.34.892.935.892.298 0 .595-.127.808-.34.212-.212.382-.51.51-1.02l.892-3.4h1.657l-.935 3.655c-.212.808-.51 1.402-.934 1.827-.51.553-1.275.808-2.21.808-1.488-.043-2.38-.808-2.38-2.168zm5.737 1.02l1.062-1.148c.595.553 1.19.85 1.828.85.382 0 .68-.17.68-.468 0-.255-.17-.34-1.02-.68-.935-.382-1.573-.807-1.573-1.7 0-1.232 1.063-2.082 2.55-2.082 1.062 0 1.87.34 2.465.935l-1.02 1.19c-.468-.425-.978-.68-1.573-.68-.382 0-.637.213-.637.425 0 .255.17.34 1.02.68.935.34 1.572.808 1.572 1.7 0 1.275-1.062 2.125-2.55 2.125-1.232-.043-2.167-.468-2.804-1.148zm7.904-3.655h-1.827l.425-1.488h5.226l-.382 1.488h-1.785l-1.232 4.674h-1.657l1.232-4.674zm4.42-1.488h2.252c1.02 0 1.657.213 2.04.638.297.34.467.765.467 1.275 0 1.02-.553 1.827-1.785 2.167l.935 2.082h-1.827l-.808-1.87h-.722l-.468 1.87h-1.657l1.572-6.162zm1.827 2.933c.722 0 1.232-.34 1.232-.85a.546.546 0 00-.17-.425c-.127-.128-.382-.213-.722-.213h-.893l-.382 1.488h.935zm6.204-2.975h1.615l.935 6.204h-1.743l-.127-1.105h-2.295l-.722 1.105H67.05l4.122-6.204zm.552 3.782l-.212-1.785-1.105 1.785h1.317zm3.995-3.74h1.657l-1.232 4.675h2.847l-.382 1.487h-4.505l1.615-6.162zm5.057 0h1.657l-1.615 6.162H79.16l1.615-6.162zm4.674-.042h1.615L88 56.859h-1.742l-.128-1.105h-2.294l-.723 1.105h-1.785l4.122-6.204zm.51 3.782l-.212-1.785-1.105 1.785h1.317zM22.983 36.717l3.612 6.077s1.232 2.04.17 4.207c-1.148 2.294-1.998 3.017-1.998 3.017s-4.334-2.89-7.096-2.932c-2.762-.043-4.505 1.7-4.505 1.7l-1.785-4.293s-.637-2.252 1.233-2.89c2.55-.892 3.187-3.229 3.187-3.229l1.572.085.68-1.275c1.657 0 2.805.468 2.805.468l-.425 1.53 1.912.807.638-3.272z" fill="#31302A"/><path d="M22.813 49.508l1.7 1.062s-.298.553-.51.808c-.256.34-.51.467-.51.467s-.978-.212-.68-2.337" fill="#31302A"/></svg>