<svg width="90" height="90" fill="none" xmlns="http://www.w3.org/2000/svg"><g clip-path="url(#clip0)" fill-rule="evenodd" clip-rule="evenodd" fill="#31302A"><path d="M19.358 15.742a3.541 3.541 0 00-2.566-1.069 2.96 2.96 0 00-1.39.32c-.427.214-.748.535-1.069.856V12H5.031L3 14.031h4.277v9.73h2.352v-9.73h2.78v9.73h2.031v-3.85c0-1.175.107-2.03.428-2.458.32-.535.748-.749 1.497-.749.641 0 1.069.214 1.39.642.32.428.427 1.07.427 1.924v4.491h2.139v-5.132c0-1.283-.321-2.245-.963-2.887zm9.195.214c-.962-.856-2.031-1.39-3.42-1.39-1.284 0-2.353.427-3.209 1.39-.855.962-1.39 2.031-1.39 3.314s.428 2.352 1.39 3.315c.856.962 2.032 1.39 3.315 1.39.962 0 1.818-.321 2.566-.856.748-.534 1.283-1.283 1.71-2.245H27.27c-.213.32-.534.642-.855.855-.107 0-.107.107-.214.107h-.107c-.213 0-.32.107-.534.107h-.321c-.428 0-.748-.107-1.07-.214l-.64-.32c-.321-.214-.428-.535-.642-.856-.214-.427-.214-.855-.214-1.39 0-1.497.962-2.78 2.566-2.78 1.283 0 2.138.749 2.46 1.818h-2.995l-1.603 1.604h6.736v-.534a4.975 4.975 0 00-1.284-3.315zm7.485 53.994c-4.49 0-6.308-3.956-6.308-6.415 0-2.887 1.924-6.522 6.2-6.522 4.278 0 6.309 3.421 6.309 6.415.107 2.566-1.497 6.522-6.201 6.522zm39.773-3.422l-4.276-15.717h-6.309l-4.17 15.717h-.106l-3.742-15.717H42.346v2.673h-.107c-.855-1.497-3.208-3.528-7.377-3.528-6.736 0-12.724 5.239-12.724 13.472 0 1.817.321 3.528.856 5.132h-9.302V42.472l-8.554 5.773v27.906h18.818v-5.453c2.031 3.742 5.774 6.308 10.906 6.308 2.993 0 6.094-1.176 7.377-3.635h.107v2.78h7.591V52.415l7.164 23.736h6.95l4.276-16.358h.107l4.277 16.358h6.95l7.698-25.233h-7.805l-3.743 15.61zm4.812-29.83c-.428.535-1.07.749-1.818.749-.749 0-1.39-.214-1.818-.749-.427-.534-.748-1.176-.748-1.924 0-.749.214-1.39.641-1.925.428-.534 1.07-.748 1.818-.748.749 0 1.39.214 1.925.748.534.535.748 1.07.748 1.818-.107.962-.32 1.603-.748 2.031zm6.2-7.27a2.14 2.14 0 01.963-.214H88v-1.925h-.428c-1.069 0-1.817.214-2.352.749-.534.427-.748 1.176-.748 2.138v.428h-1.39l-.963.855c-.962-.962-2.031-1.39-3.42-1.39-1.284 0-2.353.428-3.315 1.39-.963.962-1.39 2.032-1.39 3.315s.427 2.459 1.39 3.421c.855.962 2.031 1.39 3.314 1.39 1.39 0 2.46-.428 3.315-1.39s1.39-2.032 1.39-3.421c0-.963-.214-1.818-.749-2.566h1.71v7.163h2.032v-7.163h1.497v-1.711h-1.497v-.32c.107-.322.214-.642.428-.75zm-62.76 9.943h2.031V30.39h-2.031v8.981zm2.031-9.729h-2.031v-1.497h2.031v1.497zm31.756 0h-2.032v-1.497h2.031v1.497zM6.849 27.183v7.698c0 .641.214 2.566 2.566 2.566s2.46-2.032 2.46-2.673v-6.095l2.351-1.603v7.698c0 .962-.107 2.031-.748 2.886-.748.963-2.138 1.818-4.063 1.818-2.031 0-3.421-1.07-3.956-1.71-.428-.535-.855-1.497-.855-2.994v-6.095l2.245-1.496zm19.566 3.207h2.352l2.139 5.88 2.138-5.88h2.352l-3.635 8.981h-1.71l-3.636-8.981zm16.359 1.07c-.963-.963-2.032-1.39-3.422-1.39-1.283 0-2.352.427-3.314 1.39-.963.961-1.39 2.03-1.39 3.42 0 1.283.427 2.46 1.39 3.315.962.962 2.031 1.39 3.314 1.39.962 0 1.925-.32 2.673-.855.749-.535 1.39-1.283 1.71-2.246H41.49a2.515 2.515 0 01-.962.856c-.107 0-.107.106-.214.106h-.106c-.214.108-.321.108-.535.108h-.32c-.428 0-.75-.108-1.07-.214l-.642-.321a1.663 1.663 0 01-.641-.855 2.959 2.959 0 01-.32-1.39c0-1.604.962-2.78 2.565-2.887 1.283 0 2.139.748 2.46 1.817H38.71l-1.497 1.711h6.949v-.534c0-1.39-.534-2.566-1.39-3.422z"/><path d="M72.07 30.39h-2.46l-2.138 5.667-2.032-5.667h-3.42v-3.208l-2.139 1.604v1.604h-4.062v8.981h2.031v-7.163h2.032v7.163h2.138v-7.163h1.71l2.567 6.308-1.604 3.528h2.352L72.07 30.39zm-54.85 0v1.07c.32-.428.642-.75 1.07-.856a2.96 2.96 0 011.39-.32c.64 0 1.175.106 1.71.32.535.214.855.641 1.176 1.07.214.32.428.748.428 1.068.107.428.107 1.07.107 1.818v4.704h-2.139v-3.956c0-1.176-.107-2.031-.427-2.459-.321-.427-.749-.641-1.497-.641-.749 0-1.176.214-1.497.748-.32.535-.428 1.283-.428 2.566v3.85h-2.031v-7.485l2.138-1.497zm35.604 2.566c-.107-.748-.642-.748-.855-.748-.535 0-.856.427-.856.748 0 .535.321.642 1.497.962 1.07.321 2.46.856 2.46 2.673 0 2.032-1.605 3.101-3.101 3.101-.856 0-1.925-.32-2.673-1.176-.535-.642-.642-1.39-.642-1.925h2.138c.107.428.321 1.176 1.177 1.176.641 0 .962-.534.962-.855 0-.641-.428-.855-2.032-1.283-.962-.32-1.924-1.07-1.924-2.566 0-1.71 1.497-2.78 2.994-2.78 1.283 0 2.78.962 2.886 2.673h-2.031"/><path d="M49.51 30.39h-.963c-1.069 0-1.497.32-1.817.962v-.962h-1.925v8.981h2.138v-4.918c0-.535-.106-1.71 1.39-1.925.107-.32 1.07-1.817 1.177-2.138z"/></g><defs><clipPath id="clip0"><path fill="#fff" d="M0 0h90v90H0z"/></clipPath></defs></svg>